<?xml version="1.0" encoding="utf-8"?>
<!-- Generator: Adobe Illustrator 25.3.1, SVG Export Plug-In . SVG Version: 6.00 Build 0)  -->
<svg version="1.1" id="Layer_1" xmlns="http://www.w3.org/2000/svg" xmlns:xlink="http://www.w3.org/1999/xlink" x="0px" y="0px"
	 viewBox="0 0 80 80" style="enable-background:new 0 0 80 80;" xml:space="preserve">
<style type="text/css">
	.st0{fill:#49BF61;}
	.st1{fill:#FFFFFF;}
</style>
<circle class="st0" cx="40" cy="40" r="38.8"/>
<g>
	<path class="st1" d="M33.5,74.8c-0.4-0.3-0.7-0.6-0.5-1.2c0.2-0.5,0.7-0.6,1.2-0.6c0.5,0,1,0,1.6,0c-0.1-13-1.3-25.7-5.9-37.9
		c-0.1,0-0.1,0-0.2,0c-0.3,1.4-0.7,2.8-1,4.2c-0.2,1.3-0.4,2.6-0.5,3.8c-0.1,1.2-0.7,1.5-1.7,0.9c-1.6-0.9-2.4-2.5-2.7-4.2
		c-0.4-2.3-0.1-4.5,0.5-6.7c0.1-0.2,0.1-0.4,0.2-0.7c-0.4,0.2-0.8,0.3-1.1,0.4c-3.3,1.4-6.4,3.3-9.1,5.7c-0.9,0.8-1.6,0.6-1.9-0.5
		c-0.4-1.4-0.1-2.8,0.5-4c1.1-2.1,2.8-3.6,4.8-4.8c1-0.6,2-1,3.1-1.5c0.6-0.3,1.1-0.1,1.3,0.4c0.2,0.5-0.1,1-0.7,1.2
		c-2.3,0.9-4.4,2.2-6,4.1c-0.7,0.8-1.2,1.8-1.4,3c4.4-3.5,9.1-6,14.7-7c-0.8-0.5-1.4-1-2-1.4c-3.9-2.5-8.3-3.8-12.9-4.4
		c-0.1,0-0.3,0-0.4,0c-1.2,0-1.4-0.9-0.8-1.8c1.1-1.6,2.6-2.3,4.5-2.5c3.9-0.4,7.4,0.7,10.5,2.9c0.1,0.1,0.2,0.1,0.3,0.2
		c0,0,0.1,0,0.1,0c0.4-2.1,1.3-3.9,2.8-5.4c1.5-1.5,3.2-2.4,5.3-2.4c0.5,0,1,0.1,1.5,0.3c1,0.3,1.1,1,0.4,1.7
		c-1.9,1.9-3.5,4-4.7,6.5c-0.5,1-0.8,2.1-1.2,3.3c0.2-0.1,0.3-0.1,0.3-0.2c2.5-2.3,5.5-3.1,8.8-3c1.9,0.1,3.8,0.4,5.5,1.2
		c1.8,0.8,3.3,2,3.8,4c0,0.1,0.1,0.2,0.1,0.3c0.2,1.2-0.3,1.7-1.5,1.3c-3.2-0.8-6.4-1.2-9.6-1.1c-0.1,0-0.3,0-0.5,0.1
		c0.4,0.4,0.8,0.7,1.1,1c1.5,1.4,2.8,3,3.2,5.1c0.2,1,0.2,1.9-0.2,2.8c-0.4,0.9-1,1-1.7,0.4c-1.9-1.9-4-3.5-6.3-5
		c0.9,2.4,1.7,4.7,2.5,7c4.1-0.7,7.9-0.4,11.3,2.6c-0.1-0.4-0.1-0.7-0.2-1c-0.7-2.5-1.9-4.8-3.5-6.8c-0.8-1-0.5-1.6,0.7-1.8
		c2.1-0.3,3.8,0.6,5.2,2.1c1.4,1.5,2.1,3.4,2.3,5.3c1.2-0.4,2.4-1,3.6-1.3c2.3-0.6,4.5-0.5,6.7,0.5c1.1,0.5,2,1.4,2.5,2.6
		c0.3,0.9,0,1.4-1,1.4c-2.5-0.1-5,0.2-7.5,0.8c-0.2,0.1-0.4,0.1-0.8,0.2c0.3,0.1,0.5,0.2,0.7,0.2c2.8,1,5,2.7,6.4,5.4
		c0.8,1.5,1,3,0.3,4.6c-0.5,1.1-1.1,1.2-1.9,0.3c-1.6-1.9-3.5-3.5-5.6-4.9c-0.2-0.1-0.4-0.3-0.7-0.4c0,0-0.1,0-0.2-0.1
		c0.1,0.8,0.2,1.6,0.2,2.4c0.1,2-0.2,4-1.4,5.8c-0.5,0.8-1.3,1.4-2.2,1.7c-0.9,0.3-1.4-0.1-1.4-1.1c0-1.9-0.1-3.9-0.2-5.8
		c-1.1,1.2-5.1,14.9-5.8,19.6c0.5,0,0.9,0,1.3,0c0.5,0,1,0,1.2,0.5c0.2,0.5-0.1,0.9-0.4,1.2C42.7,74.8,38.1,74.8,33.5,74.8z
		 M30,31.2c0.4,0.8,0.8,1.7,1.1,2.5c2.8,6.9,4.3,14.1,5.3,21.4c0.7,5.8,1.1,11.6,1.1,17.4c0,0.2,0,0.3,0,0.5c1.3,0,2.5,0,3.8,0
		c-0.2-1.9-0.3-3.8-0.5-5.7c-0.7-6.6-1.7-13.2-3.3-19.6c-1.1-4.7-2.4-9.4-4.5-13.9c-0.5-1-1-2-1.5-2.9C31,31,30.5,31.1,30,31.2z
		 M49.7,48.2c-0.7,1.2-1.5,2.3-2.1,3.5c-1,1.9-1.8,3.8-2.7,5.8c-0.2,0.5-0.5,0.8-1.1,0.7c-0.6-0.1-0.9-0.7-0.6-1.3
		c0.9-2,1.8-4,2.8-5.9c0.1-0.2,0.2-0.3,0.3-0.5c-0.1-0.1-0.1-0.1-0.2-0.2c-1.6,1.1-3.3,2.1-4.9,3.2c-0.4,0.3-0.4,0.6-0.4,1
		c1,5.2,1.7,10.5,2.1,15.9c0.1,0.9,0.1,1.9,0.2,2.8c0.1,0,0.1,0,0.2,0c1.1-4.1,2.1-8.3,3.2-12.4c1.2-4.2,2.7-8.2,4.6-12.1
		c-0.3-0.1-0.5-0.1-0.7-0.2C50.1,48.4,49.9,48.3,49.7,48.2z M14.9,22c5.3,0.9,10.2,2.6,14.5,5.9C28.2,22.7,18.4,18.8,14.9,22z
		 M32.9,28.5c5.2-1.5,10.4-1.3,15.6-0.2C46.9,25,36.9,23.1,32.9,28.5z M26.5,41.8c0.4-3,1-5.8,2-8.5c0.2-0.5,0.2-0.9-0.1-1.4
		c-0.1-0.2-0.4-0.5-0.5-0.5c-0.5,0.1-1.1-0.1-1.3,0.5c-1,2.3-1.5,4.6-1.1,7.1C25.5,40.1,25.8,41,26.5,41.8z M33.1,30.2
		c0.4,0.3,0.6,0.6,0.8,0.8c2.6,1.4,5,3.1,7.3,5c0.1,0.1,0.2,0.2,0.4,0.3c0-1-0.4-1.7-0.8-2.4c-1.1-1.8-2.7-3.1-4.5-4.2
		c-0.1-0.1-0.3-0.1-0.4-0.1C35.1,29.8,34.2,30,33.1,30.2z M52,45.4c3.6-2.1,7.5-2.9,11.6-3C60.8,39.6,53.2,41.6,52,45.4z M48.4,45.4
		c-1.3-2.6-7.6-4.5-10.4-3c0,0.2,0.1,0.4,0.1,0.6c0.1,0.6,0.4,0.7,0.9,0.8c1.7,0.1,3.4,0.2,5,0.5C45.6,44.6,47,45.1,48.4,45.4z
		 M53.1,47.2c3.9,1.3,7,3.5,9.7,6.4C63,49.7,57,45.8,53.1,47.2z M30.6,25.6c0.9-3.4,2.7-6.4,5-9.1c-0.7,0.2-1.4,0.3-2,0.6
		c-2.1,1.2-3.3,3.1-3.8,5.4C29.6,23.7,29.6,24.7,30.6,25.6z M53.1,57.8c0.1,0,0.1,0.1,0.2,0.1c0.3-0.6,0.6-1.1,0.8-1.7
		c0.6-2,0.4-4,0-6.1c-0.1-0.7-0.5-1-1.3-1.1c-0.2,0.5-0.6,1.1-0.5,1.6C52.7,53,53,55.4,53.1,57.8z M40.7,51.5c2.3-1.6,4.5-2.8,7-3.7
		c0.2-0.1,0.3-0.2,0.5-0.4c-0.8-0.3-1.5-0.5-2.2-0.7c-0.1,0-0.3,0-0.4,0C44.3,47.2,43,48,42,49.1C41.4,49.8,40.9,50.5,40.7,51.5z
		 M50.8,43.7c0.6-0.5,0.8-1.1,0.8-1.8c0-2.3-0.8-4.3-2.6-5.8c-0.4-0.3-0.9-0.5-1.3-0.7c0,0.1-0.1,0.1-0.1,0.2
		C49.2,38,50.4,40.7,50.8,43.7z M43,45.8c-1.4-0.1-2.7-0.2-4.1-0.3c0.3,1.3,0.6,2.4,0.8,3.4C40.8,47.9,41.9,46.9,43,45.8z"/>
</g>
<g>
	<path class="st1" d="M24.3,72.9c-0.1,0-0.1,0-0.2-0.1C11.4,66.7,3.5,54.1,3.5,40C3.5,19.9,19.9,3.5,40,3.5S76.5,19.9,76.5,40
		c0,12.7-6.4,24.3-17.3,31c-0.2,0.1-0.5,0.1-0.7-0.2c-0.1-0.2-0.1-0.5,0.2-0.7C69.2,63.6,75.5,52.4,75.5,40
		C75.5,20.4,59.6,4.5,40,4.5C20.4,4.5,4.5,20.4,4.5,40c0,13.7,7.7,25.9,20,31.9c0.2,0.1,0.4,0.4,0.2,0.7
		C24.6,72.8,24.4,72.9,24.3,72.9z"/>
</g>
</svg>
